# xmcd
#
# Track frame offsets: 
#        150
#        14840
#        30212
#        44074
#        61450
#        78481
#        90047
#        104662
#        118833
#        132925
#        151968
#        179479
#
# Disc length: 2451 seconds
#
# Revision: 3
# Processed by: cddbd v1.5.2PL0 Copyright (c) Steve Scherf et al.
# Submitted via: ExactAudioCopy v0.99pb4
#
DISCID=9d09910c
DTITLE=Sharleen Spiteri - Melody
DYEAR=2008
DGENRE=R&B/Soul
TTITLE0=It Was You
TTITLE1=All The Times I Cried
TTITLE2=Stop I Don't Love You Anymore
TTITLE3=Melody
TTITLE4=I Wonder
TTITLE5=I'm Going To Haunt You
TTITLE6=Don't Keep Me Waiting
TTITLE7=You Let Me Down
TTITLE8=Where Did It Go Wrong
TTITLE9=Day Tripping
TTITLE10=Francoise
TTITLE11=DATA
EXTD=
EXTT0=
EXTT1=
EXTT2=
EXTT3=
EXTT4=
EXTT5=
EXTT6=
EXTT7=
EXTT8=
EXTT9=
EXTT10=
EXTT11=
PLAYORDER=
